<?xml version="1.0" encoding="UTF-8" standalone="no"?>
<svg width="14px" height="14px" viewBox="0 0 14 14" version="1.1" xmlns="http://www.w3.org/2000/svg" xmlns:xlink="http://www.w3.org/1999/xlink">
    <!-- Generator: Sketch 41.2 (35397) - http://www.bohemiancoding.com/sketch -->
    <title>lens</title>
    <desc>Created with Sketch.</desc>
    <defs></defs>
    <g id="Page-1" stroke="none" stroke-width="1" fill="none" fill-rule="evenodd">
        <g id="Doctor_Detail_Desktop" transform="translate(-305.000000, -290.000000)" fill="#B5BABA">
            <g id="filters" transform="translate(100.000000, 241.000000)">
                <g id="services">
                    <g id="search" transform="translate(10.000000, 42.000000)">
                        <path d="M208.878909,20.286031 L205.475937,16.8838137 C206.388778,15.8345898 206.94145,14.4656319 206.94145,12.9694013 C206.94145,9.67583149 204.261921,7 200.970725,7 C197.676425,7 195,9.6789357 195,12.9694013 C195,16.259867 197.67953,18.9388027 200.970725,18.9388027 C202.467288,18.9388027 203.836549,18.3862528 204.886006,17.4736142 L208.288978,20.8758315 C208.369705,20.956541 208.478377,21 208.583943,21 C208.68951,21 208.798181,20.9596452 208.878909,20.8758315 C209.040364,20.7144124 209.040364,20.4474501 208.878909,20.286031 L208.878909,20.286031 Z M195.835218,12.9694013 C195.835218,10.1383592 198.139055,7.83813747 200.96762,7.83813747 C203.79929,7.83813747 206.100022,10.1414634 206.100022,12.9694013 C206.100022,15.7973392 203.79929,18.1037694 200.96762,18.1037694 C198.139055,18.1037694 195.835218,15.8004435 195.835218,12.9694013 L195.835218,12.9694013 Z" id="lens"></path>
                    </g>
                </g>
            </g>
        </g>
    </g>
</svg>