<?xml version="1.0" encoding="UTF-8" standalone="no"?>
<svg width="40px" height="40px" viewBox="0 0 40 40" version="1.1" xmlns="http://www.w3.org/2000/svg" xmlns:xlink="http://www.w3.org/1999/xlink">
    <!-- Generator: Sketch 41.2 (35397) - http://www.bohemiancoding.com/sketch -->
    <title>search</title>
    <desc>Created with Sketch.</desc>
    <defs>
        <path d="M23.5,22 L22.71,22 L22.43,21.73 C23.41,20.59 24,19.11 24,17.5 C24,13.91 21.09,11 17.5,11 C13.91,11 11,13.91 11,17.5 C11,21.09 13.91,24 17.5,24 C19.11,24 20.59,23.41 21.73,22.43 L22,22.71 L22,23.5 L27,28.49 L28.49,27 L23.5,22 L23.5,22 Z M17.5,22 C15.01,22 13,19.99 13,17.5 C13,15.01 15.01,13 17.5,13 C19.99,13 22,15.01 22,17.5 C22,19.99 19.99,22 17.5,22 L17.5,22 Z" id="path-1"></path>
        <filter x="-50%" y="-50%" width="200%" height="200%" filterUnits="objectBoundingBox" id="filter-2">
            <feOffset dx="0" dy="1" in="SourceAlpha" result="shadowOffsetOuter1"></feOffset>
            <feGaussianBlur stdDeviation="0.5" in="shadowOffsetOuter1" result="shadowBlurOuter1"></feGaussianBlur>
            <feColorMatrix values="0 0 0 0 0   0 0 0 0 0   0 0 0 0 0  0 0 0 0.2 0" type="matrix" in="shadowBlurOuter1"></feColorMatrix>
        </filter>
    </defs>
    <g id="Page-1" stroke="none" stroke-width="1" fill="none" fill-rule="evenodd">
        <g id="Doctor_Detail_Mobile" transform="translate(-35.000000, -194.000000)">
            <g id="icons" transform="translate(35.000000, 194.000000)">
                <g id="search">
                    <rect id="bg" fill="#626767" x="-1.33749221e-14" y="0" width="40" height="40" rx="20"></rect>
                    <g id="Shape">
                        <use fill="black" fill-opacity="1" filter="url(#filter-2)" xlink:href="#path-1"></use>
                        <use fill="#FFFFFF" fill-rule="evenodd" xlink:href="#path-1"></use>
                    </g>
                </g>
            </g>
        </g>
    </g>
</svg>