<?xml version="1.0" encoding="UTF-8" standalone="no"?>
<svg width="145px" height="23px" viewBox="0 0 145 23" version="1.1" xmlns="http://www.w3.org/2000/svg" xmlns:xlink="http://www.w3.org/1999/xlink">
    <!-- Generator: Sketch 41.2 (35397) - http://www.bohemiancoding.com/sketch -->
    <title>Logo</title>
    <desc>Created with Sketch.</desc>
    <defs></defs>
    <g id="Symbols" stroke="none" stroke-width="1" fill="none" fill-rule="evenodd">
        <g id="Logo" fill="#F5F3EB">
            <g id="DENTAL.io">
                <path d="M0,22.6944972 L0,1.51296648 L7.88483407,1.51296648 C10.4531642,1.51296648 12.601735,2.32520799 14.330611,3.94971537 C16.0594869,5.57422275 16.9239119,7.65695546 16.9239119,10.197976 L16.9239119,14.0094877 C16.9239119,16.5602067 16.0594869,18.645364 14.330611,20.2650221 C12.601735,21.8846802 10.4531642,22.6944972 7.88483407,22.6944972 L0,22.6944972 Z M5.08167063,5.29538267 L5.08167063,18.912081 L7.54005996,18.912081 C8.8891828,18.912081 9.94348151,18.4635297 10.7029877,17.5664137 C11.4624939,16.6692976 11.8422413,15.4836675 11.8422413,14.0094877 L11.8422413,10.1688805 C11.8422413,8.70439917 11.4624939,7.52604283 10.7029877,6.63377609 C9.94348151,5.74150935 8.8891828,5.29538267 7.54005996,5.29538267 L5.08167063,5.29538267 Z M33.6979221,13.631246 L25.1385299,13.631246 L25.1385299,18.912081 L35.2269203,18.912081 L35.2269203,22.6944972 L20.0568593,22.6944972 L20.0568593,1.51296648 L35.2569007,1.51296648 L35.2569007,5.29538267 L25.1385299,5.29538267 L25.1385299,9.84882985 L33.6979221,9.84882985 L33.6979221,13.631246 Z M55.733485,22.6944972 L50.6817947,22.6944972 L42.6920294,9.1941809 L42.6020883,9.22327641 L42.6020883,22.6944972 L37.5204177,22.6944972 L37.5204177,1.51296648 L42.6020883,1.51296648 L50.5918536,15.0132827 L50.6817947,14.9841872 L50.6817947,1.51296648 L55.733485,1.51296648 L55.733485,22.6944972 Z M74.3962576,5.29538267 L68.6400289,5.29538267 L68.6400289,22.6944972 L63.5583583,22.6944972 L63.5583583,5.29538267 L57.8471002,5.29538267 L57.8471002,1.51296648 L74.3962576,1.51296648 L74.3962576,5.29538267 Z M88.0523106,18.5774826 L81.1718185,18.5774826 L79.9426238,22.6944972 L74.845963,22.6944972 L81.891347,1.51296648 L87.332782,1.51296648 L94.3931562,22.6944972 L89.2964954,22.6944972 L88.0523106,18.5774826 Z M82.2960819,14.7950664 L86.9280471,14.7950664 L84.64954,7.21568627 L84.5595989,7.21568627 L82.2960819,14.7950664 Z M101.018815,18.912081 L110.417657,18.912081 L110.417657,22.6944972 L95.9371446,22.6944972 L95.9371446,1.51296648 L101.018815,1.51296648 L101.018815,18.912081 Z M117.942727,22.6944972 L112.891037,22.6944972 L112.891037,18.5629349 L117.942727,18.5629349 L117.942727,22.6944972 Z M126.876874,22.6944972 L121.795203,22.6944972 L121.795203,6.95382669 L126.876874,6.95382669 L126.876874,22.6944972 Z M126.876874,3.30234029 L121.795203,3.30234029 L121.795203,0 L126.876874,0 L126.876874,3.30234029 Z M129.305283,14.6786844 C129.305283,12.3122378 129.994824,10.3846796 131.373927,8.89595193 C132.753031,7.40722427 134.676751,6.6628716 137.145146,6.6628716 C139.623535,6.6628716 141.552252,7.40722427 142.931355,8.89595193 C144.310459,10.3846796 145,12.3122378 145,14.6786844 L145,14.9841872 C145,17.3603324 144.310459,19.2903152 142.931355,20.7741935 C141.552252,22.2580719 139.633528,23 137.175127,23 C134.686745,23 132.753031,22.2580719 131.373927,20.7741935 C129.994824,19.2903152 129.305283,17.3603324 129.305283,14.9841872 L129.305283,14.6786844 Z M134.371963,14.9841872 C134.371963,16.3031902 134.584322,17.3384951 135.009046,18.0901328 C135.43377,18.8417706 136.155789,19.2175838 137.175127,19.2175838 C138.164483,19.2175838 138.874011,18.839346 139.303732,18.082859 C139.733453,17.3263719 139.94831,16.2934917 139.94831,14.9841872 L139.94831,14.6786844 C139.94831,13.3984756 139.733453,12.3728691 139.303732,11.6018343 C138.874011,10.8307994 138.15449,10.4452878 137.145146,10.4452878 C136.145796,10.4452878 135.43377,10.833224 135.009046,11.6091082 C134.584322,12.3849923 134.371963,13.4081741 134.371963,14.6786844 L134.371963,14.9841872 Z"></path>
            </g>
        </g>
    </g>
</svg>